<svg width="60" height="60" viewBox="0 0 60 60" fill="none" xmlns="http://www.w3.org/2000/svg">
<path d="M18.52 41.38C12.48 41.38 9.12 37.66 10.2 34.54C11.28 31.42 15.76 30.82 17.68 32.1C19.88 33.54 16.16 39.38 18.12 39.38C19.76 39.38 20.68 37.18 20.68 34.54V29.18C20.68 26.46 19.48 25.42 19.48 23.22C19.48 21.46 21.08 20.82 23.64 20.82C26.16 20.82 27.8 21.46 27.8 23.22C27.8 25.42 26.56 26.46 26.56 29.18V35.66C26.56 39.18 23.2 41.38 18.52 41.38ZM27.8516 39.34C27.8516 37.34 30.2516 36.14 30.2516 33.46V28.46C30.2516 25.74 29.0116 24.9 29.0116 22.9C29.0116 21.42 30.0516 20.82 31.5716 20.82H32.7716C36.1316 20.82 40.4116 27.22 43.1716 31.1C43.8516 32.1 45.8116 34.54 45.7316 34.42C45.7716 34.22 45.7716 34.02 45.7716 33.78V28.78C45.7716 26.06 43.3716 24.9 43.3716 22.9C43.3716 21.42 44.6516 20.82 46.7716 20.82C48.6116 20.82 50.1716 21.42 50.1716 22.9C50.1716 24.9 47.7716 26.06 47.7716 28.78V33.78C47.7716 36.5 49.0116 37.34 49.0116 39.34C49.0116 40.82 47.9716 41.38 46.4516 41.38H45.2516C41.8916 41.38 37.6116 35.02 34.8916 31.1C34.2516 30.26 32.2916 27.82 32.2916 27.78C32.2516 28.02 32.2516 28.22 32.2516 28.46V33.46C32.2516 36.14 34.6516 37.34 34.6516 39.34C34.6516 40.82 33.3716 41.38 31.2516 41.38C29.4116 41.38 27.8516 40.82 27.8516 39.34Z" fill="#FE695F"/>
</svg>
